HIERARCHY
ROOT Hips
{
  OFFSET 0.374978 85.9014 -8.46859
  CHANNELS 6 Xposition Yposition Zposition Zrotation Xrotation Yrotation
  JOINT Spine
  {
    OFFSET 0 9.91813 -2.23682
    CHANNELS 6 Xposition Yposition Zposition Zrotation Xrotation Yrotation
    JOINT Spine1
    {
      OFFSET 0 9.57301 0
      CHANNELS 6 Xposition Yposition Zposition Zrotation Xrotation Yrotation
      JOINT Spine2
      {
        OFFSET 0 9.57301 0
        CHANNELS 6 Xposition Yposition Zposition Zrotation Xrotation Yrotation
        JOINT Spine3
        {
          OFFSET 0 9.57301 0
          CHANNELS 6 Xposition Yposition Zposition Zrotation Xrotation Yrotation
          JOINT Neck
          {
            OFFSET 0 12.3082 1.23082
            CHANNELS 6 Xposition Yposition Zposition Zrotation Xrotation Yrotation
            JOINT Neck1
            {
              OFFSET 0 3.93031 0
              CHANNELS 6 Xposition Yposition Zposition Zrotation Xrotation Yrotation
              JOINT Head
              {
                OFFSET 0 3.93031 0
                CHANNELS 6 Xposition Yposition Zposition Zrotation Xrotation Yrotation
                End Site
                {
                  OFFSET 0 9.72808 0
                }
              }
            }
          }
          JOINT RightShoulder
          {
            OFFSET 0 8.79154 5.27092
            CHANNELS 6 Xposition Yposition Zposition Zrotation Xrotation Yrotation
            JOINT RightArm
            {
              OFFSET 0 16.5743 0
              CHANNELS 6 Xposition Yposition Zposition Zrotation Xrotation Yrotation
              JOINT RightForeArm
              {
                OFFSET 0 27.4101 0
                CHANNELS 6 Xposition Yposition Zposition Zrotation Xrotation Yrotation
                JOINT RightHand
                {
                  OFFSET 0 20.5961 0
                  CHANNELS 6 Xposition Yposition Zposition Zrotation Xrotation Yrotation
                  JOINT RightHandThumb1
                  {
                    OFFSET -2.72421 3.18823 2.37073
                    CHANNELS 6 Xposition Yposition Zposition Zrotation Xrotation Yrotation
                    End Site
                    {
                      OFFSET 0 0 0
                    }
                  }
                  JOINT RightHandMiddle1
                  {
                    OFFSET 0 8.50195 -0.0544997
                    CHANNELS 6 Xposition Yposition Zposition Zrotation Xrotation Yrotation
                    End Site
                    {
                      OFFSET 0 0 0
                    }
                  }
                }
              }
            }
          }
          JOINT LeftShoulder
          {
            OFFSET 0 8.79154 5.27092
            CHANNELS 6 Xposition Yposition Zposition Zrotation Xrotation Yrotation
            JOINT LeftArm
            {
              OFFSET 0 16.5743 0
              CHANNELS 6 Xposition Yposition Zposition Zrotation Xrotation Yrotation
              JOINT LeftForeArm
              {
                OFFSET 0 27.4101 0
                CHANNELS 6 Xposition Yposition Zposition Zrotation Xrotation Yrotation
                JOINT LeftHand
                {
                  OFFSET 0 20.5961 0
                  CHANNELS 6 Xposition Yposition Zposition Zrotation Xrotation Yrotation
                  JOINT LeftHandThumb1
                  {
                    OFFSET 2.72421 3.18823 2.37073
                    CHANNELS 6 Xposition Yposition Zposition Zrotation Xrotation Yrotation
                    End Site
                    {
                      OFFSET 0 0 0
                    }
                  }
                  JOINT LeftHandMiddle1
                  {
                    OFFSET 0 8.50195 -0.0544997
                    CHANNELS 6 Xposition Yposition Zposition Zrotation Xrotation Yrotation
                    End Site
                    {
                      OFFSET 0 0 0
                    }
                  }
                }
              }
            }
          }
        }
      }
    }
  }
  JOINT RightUpLeg
  {
    OFFSET -7.90196 0 0
    CHANNELS 6 Xposition Yposition Zposition Zrotation Xrotation Yrotation
    JOINT RightLeg
    {
      OFFSET 0 -40.4174 0
      CHANNELS 6 Xposition Yposition Zposition Zrotation Xrotation Yrotation
      JOINT RightFoot
      {
        OFFSET 0 -40.7278 0
        CHANNELS 6 Xposition Yposition Zposition Zrotation Xrotation Yrotation
        JOINT RightForeFoot
        {
          OFFSET 0 -3.70561 0
          CHANNELS 6 Xposition Yposition Zposition Zrotation Xrotation Yrotation
          JOINT RightToeBase
          {
            OFFSET 0 0 14.5123
            CHANNELS 6 Xposition Yposition Zposition Zrotation Xrotation Yrotation
            End Site
            {
              OFFSET 0 0 5.18155
            }
          }
        }
      }
    }
  }
  JOINT LeftUpLeg
  {
    OFFSET 7.90196 0 0
    CHANNELS 6 Xposition Yposition Zposition Zrotation Xrotation Yrotation
    JOINT LeftLeg
    {
      OFFSET 0 -40.4174 0
      CHANNELS 6 Xposition Yposition Zposition Zrotation Xrotation Yrotation
      JOINT LeftFoot
      {
        OFFSET 0 -40.7278 0
        CHANNELS 6 Xposition Yposition Zposition Zrotation Xrotation Yrotation
        JOINT LeftForeFoot
        {
          OFFSET 0 -3.70561 0
          CHANNELS 6 Xposition Yposition Zposition Zrotation Xrotation Yrotation
          JOINT LeftToeBase
          {
            OFFSET 0 0 14.5123
            CHANNELS 6 Xposition Yposition Zposition Zrotation Xrotation Yrotation
            End Site
            {
              OFFSET 0 0 5.35275
            }
          }
        }
      }
    }
  }
}
MOTION
Frames:	7
Frame Time:	0.00833333
0.374978 85.9014 -8.46859 2.66945 -5.68601 -0.549002 -8.88178e-016 9.91813 -2.23682 -1.76701 1.54015 0.0582585 2.22045e-016 9.57301 0 -0.710029 5.0327 0.221779 -2.77556e-017 9.57301 0 -0.272269 0.983016 0.689178 2.77556e-017 9.57301 0 2.6899 -2.04682 -0.452788 8.88178e-016 12.3082 1.23082 0.645037 -1.04592 0.883619 8.88178e-016 3.93031 0 -1.83425 4.78605 -1.16662 4.44089e-016 3.93031 0 -1.25948 -7.87407 -0.107189 8.88178e-016 8.79154 5.27092 83.0415 -23.9406 -2.83534 0 16.5743 1.77636e-015 2.69159 26.8011 28.8446 0 27.4101 -7.10543e-015 -1.13421e-007 11.1085 -17.4627 -2.84217e-014 20.5961 -1.77636e-015 -13.3704 -12.1255 -1.62657e-015 -2.72421 3.18823 2.37073 4.60146e-015 45.2637 -4.51883e-015 -2.84217e-014 8.50195 -0.0544997 4.57205e-015 0 -3.18055e-015 8.88178e-016 8.79154 5.27092 -84.9976 -25.0091 2.11925 -2.84217e-014 16.5743 1.77636e-015 -4.98449 28.6675 -13.8406 2.84217e-014 27.4101 -3.55271e-015 -4.27327e-009 1.22807 5.03232 -2.84217e-014 20.5961 3.55271e-015 9.14915 -14.5241 -1.64278e-015 2.72421 3.18823 2.37073 2.81239e-015 45.2637 -4.51883e-015 1.42109e-014 8.50195 -0.0544997 7.95139e-016 1.59028e-015 1.59028e-015 -7.90196 0 0 -8.14749 6.72297 -0.382329 1.77636e-015 -40.4174 0 -2.00023e-015 8.86801 2.0119e-016 0 -40.7278 0 4.34065 -17.6523 6.77258 0 -3.70561 0 -3.97569e-016 1.59028e-015 -0 0 0 14.5123 1.98785e-016 -5.55867 -0 7.90196 0 0 2.55487 8.33034 3.0862 3.55271e-015 -40.4174 0 1.30272e-015 5.61282 3.99485e-016 0 -40.7278 -1.77636e-015 -9.16347 -13.0993 -6.97777 1.77636e-015 -3.70561 -3.55271e-015 -2.98177e-016 7.95139e-016 -3.97569e-016 1.77636e-015 0 14.5123 9.93923e-017 -6.20311 -0 
0.373438 85.9021 -8.46896 2.67551 -5.68538 -0.543406 8.88178e-016 9.91813 -2.23682 -1.76734 1.54667 0.0584317 -2.22045e-016 9.57301 -1.77636e-015 -0.709266 5.0349 0.221509 0 9.57301 0 -0.273562 0.980143 0.686035 0 9.57301 0 2.69444 -2.04184 -0.453652 0 12.3082 1.23082 0.661328 -1.00943 0.8714 -8.88178e-016 3.93031 0 -1.86148 4.764 -1.17845 0 3.93031 -3.55271e-015 -1.27451 -7.89119 -0.108501 -1.77636e-015 8.79154 5.27092 83.0327 -23.9597 -2.84106 0 16.5743 -1.77636e-015 2.68264 26.815 28.8576 -2.84217e-014 27.4101 7.10543e-015 2.59011e-006 11.0957 -17.4705 2.84217e-014 20.5961 2.66454e-015 -13.3721 -12.1299 1.92255e-007 -2.72421 3.18823 2.37073 -1.49089e-015 45.2637 -0 2.84217e-014 8.50195 -0.0544997 -1.59028e-015 7.95139e-016 -3.18055e-015 -1.77636e-015 8.79154 5.27092 -85.0083 -25.0093 2.11468 0 16.5743 -8.88178e-016 -4.98118 28.6644 -13.8338 0 27.4101 3.55271e-015 -4.98924e-008 1.24459 5.03221 0 20.5961 -1.77636e-015 9.1452 -14.5194 -4.98944e-007 2.72421 3.18823 2.37073 -2.79769e-015 45.2637 2.25941e-015 1.42109e-014 8.50195 -0.0544997 -1.19271e-015 3.18055e-015 -0 -7.90196 -1.42109e-014 0 -8.15241 6.72476 -0.387025 0 -40.4174 -1.77636e-015 2.67013e-016 8.86599 -4.02377e-016 0 -40.7278 0 4.34128 -17.6578 6.77238 0 -3.70561 0 1.98785e-016 3.18055e-015 7.95139e-016 1.77636e-015 0 14.5123 3.53571e-016 -5.55926 1.59779e-015 7.90196 0 1.77636e-015 2.55024 8.32318 3.07916 0 -40.4174 0 -1.71452e-015 5.62396 -0 0 -40.7278 -3.55271e-015 -9.15972 -13.1046 -6.97705 0 -3.70561 0 -1.49089e-016 -7.95139e-016 -3.97569e-016 0 8.88178e-016 14.5123 1.55528e-016 -6.20954 -3.99916e-016 
0.372729 85.9007 -8.4675 2.68156 -5.68474 -0.537809 0 9.91813 -2.23682 -1.76767 1.55319 0.058605 2.22045e-016 9.57301 -8.88178e-016 -0.708502 5.03709 0.221239 5.55112e-017 9.57301 0 -0.274856 0.977271 0.682892 5.55112e-017 9.57301 3.55271e-015 2.69899 -2.03686 -0.454516 -1.77636e-015 12.3082 1.23082 0.677627 -0.972943 0.85917 -8.88178e-016 3.93031 0 -1.88871 4.74195 -1.1903 -4.44089e-016 3.93031 0 -1.28954 -7.90831 -0.109818 -8.88178e-016 8.79154 5.27092 83.024 -23.9788 -2.84679 2.84217e-014 16.5743 -1.77636e-015 2.67368 26.8289 28.8706 0 27.4101 -7.10543e-015 3.50764e-006 11.0829 -17.4784 0 20.5961 -1.77636e-015 -13.3737 -12.1342 2.56344e-007 -2.72421 3.18823 2.37073 3.38753e-016 45.2637 9.03765e-015 0 8.50195 -0.0544997 3.37934e-015 -1.59028e-015 3.18055e-015 -8.88178e-016 8.79154 5.27092 -85.0191 -25.0095 2.11011 0 16.5743 4.44089e-016 -4.97787 28.6614 -13.827 2.84217e-014 27.4101 -7.10543e-015 -6.38313e-008 1.2611 5.0321 0 20.5961 -1.77636e-015 9.14125 -14.5148 -6.65245e-007 2.72421 3.18823 2.37073 1.98785e-015 45.2637 -0 -2.84217e-014 8.50195 -0.0544997 3.97569e-016 0 -0 -7.90196 0 0 -8.15733 6.72655 -0.39172 0 -40.4174 -1.77636e-015 -3.23144e-016 8.86396 -4.02375e-016 0 -40.7278 -3.55271e-015 4.34191 -17.6632 6.77219 0 -3.70561 0 1.98785e-016 3.18055e-015 -7.95139e-016 -1.77636e-015 -4.44089e-016 14.5123 4.39819e-017 -5.55984 -1.59779e-015 7.90196 -1.42109e-014 -1.77636e-015 2.54562 8.31603 3.07212 3.55271e-015 -40.4174 0 9.19379e-016 5.63509 -0 0 -40.7278 -1.77636e-015 -9.15597 -13.11 -6.97633 1.77636e-015 -3.70561 0 0 0 -0 -1.77636e-015 -8.88178e-016 14.5123 -3.47873e-016 -6.21597 -0 
0.371565 85.8996 -8.46837 2.68762 -5.68411 -0.532213 0 9.91813 -2.23682 -1.768 1.55971 0.0587783 2.22045e-016 9.57301 0 -0.707739 5.03929 0.22097 5.55112e-017 9.57301 1.77636e-015 -0.276149 0.974398 0.679749 -2.77556e-017 9.57301 0 2.70353 -2.03188 -0.455381 0 12.3082 1.23082 0.693933 -0.936459 0.846931 0 3.93031 -1.77636e-015 -1.91594 4.7199 -1.20215 4.44089e-016 3.93031 0 -1.30457 -7.92542 -0.11114 -8.88178e-016 8.79154 5.27092 83.0152 -23.998 -2.85252 2.84217e-014 16.5743 -1.77636e-015 2.66472 26.8429 28.8836 -1.42109e-014 27.4101 0 2.6394e-006 11.0701 -17.4862 2.84217e-014 20.5961 0 -13.3754 -12.1385 1.92261e-007 -2.72421 3.18823 2.37073 2.98177e-015 45.2637 -0 0 8.50195 -0.0544997 3.08116e-015 7.95139e-016 1.59028e-015 -8.88178e-016 8.79154 5.27092 -85.0299 -25.0097 2.10554 0 16.5743 -4.44089e-016 -4.97457 28.6584 -13.8202 2.84217e-014 27.4101 -3.55271e-015 -4.60893e-008 1.27762 5.03199 2.84217e-014 20.5961 -1.77636e-015 9.1373 -14.5101 -4.98923e-007 2.72421 3.18823 2.37073 1.95844e-015 45.2637 4.51883e-015 1.42109e-014 8.50195 -0.0544997 3.18055e-015 0 1.59028e-015 -7.90196 0 0 -8.16225 6.72833 -0.396416 1.77636e-015 -40.4174 0 -6.70832e-016 8.86194 2.01186e-016 -1.77636e-015 -40.7278 3.55271e-015 4.34254 -17.6686 6.77199 0 -3.70561 0 -3.97569e-016 -1.59028e-015 -0 1.77636e-015 -8.88178e-016 14.5123 -9.93923e-017 -5.56043 -0 7.90196 1.42109e-014 1.77636e-015 2.54099 8.30888 3.06509 0 -40.4174 1.77636e-015 5.17742e-016 5.64622 7.99015e-016 0 -40.7278 0 -9.15223 -13.1153 -6.9756 1.77636e-015 -3.70561 0 1.98785e-016 0 -0 -1.77636e-015 0 14.5123 2.91828e-016 -6.2224 3.99925e-016 
0.370288 85.899 -8.46995 2.69368 -5.68347 -0.526616 0 9.91813 -2.23682 -1.76833 1.56624 0.0589516 2.22045e-016 9.57301 0 -0.706976 5.04148 0.2207 -5.55112e-017 9.57301 0 -0.277443 0.971526 0.676606 0 9.57301 0 2.70808 -2.0269 -0.456246 8.88178e-016 12.3082 1.23082 0.710246 -0.899979 0.834681 8.88178e-016 3.93031 0 -1.94318 4.69787 -1.21401 0 3.93031 0 -1.3196 -7.94254 -0.112466 0 8.79154 5.27092 83.0065 -24.0171 -2.85825 0 16.5743 0 2.65576 26.8568 28.8967 0 27.4101 0 -1.43729e-008 11.0573 -17.4941 0 20.5961 1.77636e-015 -13.377 -12.1429 -4.88002e-015 -2.72421 3.18823 2.37073 -3.57812e-015 45.2637 -0 -1.42109e-014 8.50195 -0.0544997 -3.57812e-015 -3.97569e-016 -0 0 8.79154 5.27092 -85.0407 -25.0099 2.10097 2.84217e-014 16.5743 1.33227e-015 -4.97126 28.6554 -13.8134 -5.68434e-014 27.4101 0 3.33418e-009 1.29413 5.03188 0 20.5961 3.55271e-015 9.13335 -14.5054 -1.64264e-015 2.72421 3.18823 2.37073 7.67145e-015 45.2637 -1.80753e-014 -2.84217e-014 8.50195 -0.0544997 -1.19271e-015 3.18055e-015 -1.59028e-015 -7.90196 0 0 -8.16717 6.73012 -0.401111 1.77636e-015 -40.4174 0 -5.96354e-016 8.85991 -0 0 -40.7278 0 4.34317 -17.6741 6.7718 0 -3.70561 -3.55271e-015 5.96354e-016 3.18055e-015 -0 0 -8.88178e-016 14.5123 3.42126e-016 -5.56101 -1.5978e-015 7.90196 0 -1.77636e-015 2.53636 8.30173 3.05805 3.55271e-015 -40.4174 1.77636e-015 2.98177e-016 5.65735 -0 0 -40.7278 0 -9.14848 -13.1206 -6.97487 0 -3.70561 0 5.96354e-016 7.95139e-016 -3.97569e-016 0 0 14.5123 1.55392e-016 -6.22884 -3.9993e-016 
0.369276 85.8991 -8.47222 2.7028 -5.67581 -0.520441 0 9.91813 -2.23682 -1.7697 1.56586 0.0591619 -2.22045e-016 9.57301 -8.88178e-016 -0.706615 5.03813 0.220561 -2.77556e-017 9.57301 1.77636e-015 -0.279313 0.971995 0.674079 2.77556e-017 9.57301 0 2.70409 -2.0256 -0.456974 8.88178e-016 12.3082 1.23082 0.705675 -0.891751 0.831546 -8.88178e-016 3.93031 -1.77636e-015 -1.93937 4.70761 -1.21791 8.88178e-016 3.93031 0 -1.31938 -7.93757 -0.112694 8.88178e-016 8.79154 5.27092 83.0054 -24.022 -2.85927 2.84217e-014 16.5743 0 2.64885 26.8519 28.8902 1.42109e-014 27.4101 0 -2.17425e-006 11.051 -17.4813 0 20.5961 1.77636e-015 -13.3503 -12.1399 2.14001e-006 -2.72421 3.18823 2.37073 -4.96962e-016 45.2637 -0 1.42109e-014 8.50195 -0.0544997 2.78299e-015 3.97569e-016 1.59028e-015 8.88178e-016 8.79154 5.27092 -85.0397 -25.0056 2.10108 0 16.5743 0 -4.97762 28.6546 -13.8035 2.84217e-014 27.4101 3.55271e-015 -5.66053e-007 1.30643 5.03012 2.84217e-014 20.5961 0 9.12718 -14.4998 -9.39591e-007 2.72421 3.18823 2.37073 -1.63439e-015 45.2637 6.77824e-015 0 8.50195 -0.0544997 -7.95139e-016 -1.59028e-015 1.59028e-015 -7.90196 -1.42109e-014 0 -8.17714 6.72348 -0.407057 0 -40.4174 1.77636e-015 2.8823e-015 8.85869 -2.01185e-016 -1.77636e-015 -40.7278 0 4.35143 -17.6805 6.7769 1.77636e-015 -3.70561 0 -9.93923e-017 3.18055e-015 -2.38542e-015 0 8.88178e-016 14.5123 6.18294e-016 -5.5635 -7.98902e-016 7.90196 0 1.77636e-015 2.5278 8.28115 3.05435 3.55271e-015 -40.4174 1.77636e-015 -3.47762e-015 5.67896 1.99765e-015 -3.55271e-015 -40.7278 0 -9.14181 -13.1304 -6.97737 0 -3.70561 0 -3.97569e-016 7.95139e-016 -0 0 -8.88178e-016 14.5123 -4.40963e-016 -6.22898 -3.9993e-016 
0.369078 85.8976 -8.47566 2.71192 -5.66815 -0.514267 0 9.91813 -2.23682 -1.77107 1.56548 0.0593723 2.22045e-016 9.57301 0 -0.706253 5.03478 0.220422 5.55112e-017 9.57301 0 -0.281182 0.972464 0.671552 2.77556e-017 9.57301 0 2.7001 -2.02429 -0.457702 -8.88178e-016 12.3082 1.23082 0.701103 -0.883522 0.828411 -1.77636e-015 3.93031 0 -1.93557 4.71736 -1.22182 4.44089e-016 3.93031 0 -1.31916 -7.9326 -0.112922 -8.88178e-016 8.79154 5.27092 83.0042 -24.027 -2.8603 -2.84217e-014 16.5743 -1.77636e-015 2.64194 26.847 28.8838 1.42109e-014 27.4101 7.10543e-015 -2.89877e-006 11.0446 -17.4685 2.84217e-014 20.5961 -1.77636e-015 -13.3236 -12.1369 2.85331e-006 -2.72421 3.18823 2.37073 1.14096e-016 45.2637 -2.25941e-015 0 8.50195 -0.0544997 -1.49089e-015 -1.19271e-015 -0 -8.88178e-016 8.79154 5.27092 -85.0386 -25.0013 2.10119 -2.84217e-014 16.5743 -1.33227e-015 -4.98398 28.6538 -13.7937 0 27.4101 0 -7.56514e-007 1.31874 5.02835 0 20.5961 1.77636e-015 9.121 -14.4942 -1.25276e-006 2.72421 3.18823 2.37073 1.4356e-015 45.2637 -6.77824e-015 0 8.50195 -0.0544997 7.95139e-016 0 -0 -7.90196 0 0 -8.18711 6.71684 -0.413003 0 -40.4174 0 -2.67117e-016 8.85747 -0 -1.77636e-015 -40.7278 3.55271e-015 4.35969 -17.6868 6.78201 0 -3.70561 0 -9.93923e-017 3.18055e-015 -7.95139e-016 1.77636e-015 0 14.5123 -6.51936e-016 -5.56598 -1.59781e-015 7.90196 1.42109e-014 0 2.51923 8.26057 3.05065 0 -40.4174 0 -4.02398e-016 5.70056 7.9909e-016 -3.55271e-015 -40.7278 1.77636e-015 -9.13514 -13.1402 -6.97987 1.77636e-015 -3.70561 0 1.98785e-016 7.95139e-016 -7.95139e-016 0 8.88178e-016 14.5123 6.4605e-016 -6.22913 -0 
